<?xml version="1.0" encoding="utf-8"?>
<!-- Svg Vector Icons : http://www.onlinewebfonts.com/icon -->
<!DOCTYPE svg PUBLIC "-//W3C//DTD SVG 1.1//EN" "http://www.w3.org/Graphics/SVG/1.1/DTD/svg11.dtd">
<svg version="1.1" xmlns="http://www.w3.org/2000/svg" xmlns:xlink="http://www.w3.org/1999/xlink" x="0px" y="0px" viewBox="0 0 1000 1000" enable-background="new 0 0 1000 1000" xml:space="preserve">
<metadata> Svg Vector Icons : http://www.onlinewebfonts.com/icon </metadata>
<g><path d="M990,805.7L694.2,669.9l-78.1,88.8c0,0-100.2-59.2-209.1-165.8c-106.6-108.8-165.7-209-165.7-209l88.8-78.1L194.3,10C143.4,18.9,72.9,23.6,32,107.7c-63,129.6,7,376.2,242.3,613.7l-0.1,0.1c0.8,0.8,1.5,1.4,2.2,2.1c0.7,0.7,1.4,1.5,2.1,2.2l0.1-0.1C516,961,762.7,1031,892.3,968C976.5,927.1,981.1,856.6,990,805.7"/></g>
</svg>